<svg xmlns="http://www.w3.org/2000/svg" xmlns:xlink="http://www.w3.org/1999/xlink" width="150" height="260.1" viewBox="0 0 150 260.1"><defs><style>.a,.f{fill:none;}.a{stroke:#b0d56a;stroke-width:5px;}.b{fill:url(#a);}.c{fill:url(#b);}.d{fill:url(#c);}.e{stroke:none;}</style><linearGradient id="a" x1="0.051" y1="0.082" x2="1" y2="1" gradientUnits="objectBoundingBox"><stop offset="0" stop-color="#c01c3f"/><stop offset="1" stop-color="#9e1436"/></linearGradient><linearGradient id="b" x1="0.024" y1="0" x2="0.982" y2="1" xlink:href="#a"/><linearGradient id="c" x1="0" y1="0" x2="1" y2="1" xlink:href="#a"/></defs><g transform="translate(-806 -1530)"><g class="a" transform="translate(806 1530)"><rect class="e" width="150" height="150"/><rect class="f" x="2.5" y="2.5" width="145" height="145"/></g><path class="b" d="M43.488,0c8.352,0,10.08-.288,11.04-2.88,1.152-3.36,2.688-16.128,2.688-17.376,0-1.344-.192-1.824-.864-1.824-.576,0-.96.48-1.248,1.728-1.248,4.416-3.168,7.008-9.888,7.68-5.472.576-15.264.768-16.9.768H23.04c-.48,0-.768-.288-.192-.672C33.6-20.448,53.376-32.832,53.376-52.32c0-12.288-7.488-21.312-25.92-21.312-9.6,0-15.552,1.92-19.488,3.744a2.327,2.327,0,0,0-1.152,2.4c0,2.5.48,11.232.576,12.1.1,1.824.48,2.4,1.056,2.4S9.5-53.568,9.7-55.68a14.518,14.518,0,0,1,3.264-8.256,12.666,12.666,0,0,1,9.7-3.84c4.7,0,12.864,1.824,12.864,18.624C35.52-26.4,12.192-10.368,5.28-4.416,3.456-2.88,2.3-2.112,2.3-1.248,2.3-.48,2.88,0,3.936,0ZM125.76-38.3c0-18.24-9.408-35.328-28.512-35.328C77.472-73.632,67.3-57.216,67.3-34.464c0,12.864,5.952,36.1,28.608,36.1C114.048,1.632,125.76-12.48,125.76-38.3Zm-17.088,3.456c0,18.528-3.456,30.816-10.656,30.816-9.984,0-13.536-18.624-13.536-33.984,0-24,5.472-29.856,10.848-29.856C105.312-67.872,108.672-51.936,108.672-34.848Z" transform="translate(816 1700)"/><path class="c" d="M15.1-24.05a97.98,97.98,0,0,1-1.5,11.5A25.479,25.479,0,0,1,11-5.025,10.063,10.063,0,0,1,6.9-.9,13.094,13.094,0,0,1,.9.35L.5-5.85A7.482,7.482,0,0,0,3.475-6.7a5.619,5.619,0,0,0,2.2-2.75A25.135,25.135,0,0,0,7.25-15.325Q7.9-19.15,8.45-25.5l.85-10H30.8V0H23.95V-29.45h-8.4Zm48.1,18V0H38.55V-35.5h24.2v6.05H45.45v8.55H60.4v5.6H45.45v9.25Zm31.95-23.4H83.8V0H76.95V-29.45H65.6V-35.5H95.15Z" transform="translate(816 1759)"/><path class="d" d="M1.8,0V-14.2H7.68a3.686,3.686,0,0,1,1.69.39,4.453,4.453,0,0,1,1.33,1.02,4.84,4.84,0,0,1,.88,1.43,4.329,4.329,0,0,1,.32,1.62,4.827,4.827,0,0,1-.3,1.69,4.573,4.573,0,0,1-.84,1.43,4.224,4.224,0,0,1-1.29,1,3.642,3.642,0,0,1-1.67.38H3.2V0ZM3.2-6.48H7.74a2.377,2.377,0,0,0,1.13-.27,2.751,2.751,0,0,0,.87-.72,3.391,3.391,0,0,0,.56-1.04,3.805,3.805,0,0,0,.2-1.23,3.411,3.411,0,0,0-.23-1.25,3.4,3.4,0,0,0-.62-1.03,2.831,2.831,0,0,0-.92-.69,2.571,2.571,0,0,0-1.11-.25H3.2ZM17.74-14.2h1.18L24.82,0H23.34L21.5-4.44H15.12L13.3,0H11.8Zm3.44,8.66-2.86-7.02-2.9,7.02ZM26.9-14.2h9.68v1.24h-8.3v4.78h4.9a5.229,5.229,0,0,1,1.72.27,3.738,3.738,0,0,1,1.34.79,3.547,3.547,0,0,1,.87,1.28,4.52,4.52,0,0,1,.31,1.72,4.52,4.52,0,0,1-.31,1.72,3.817,3.817,0,0,1-.86,1.3,3.61,3.61,0,0,1-1.33.82A5.059,5.059,0,0,1,33.2,0H26.9ZM33.2-1.22a3.247,3.247,0,0,0,1.25-.22,2.4,2.4,0,0,0,.88-.61,2.5,2.5,0,0,0,.52-.92,3.746,3.746,0,0,0,.17-1.15,3.862,3.862,0,0,0-.16-1.14,2.38,2.38,0,0,0-.5-.9,2.251,2.251,0,0,0-.88-.59,3.59,3.59,0,0,0-1.3-.21h-4.9v5.74ZM45.66.1a6.014,6.014,0,0,1-2.71-.61,6.737,6.737,0,0,1-2.11-1.62,7.366,7.366,0,0,1-1.36-2.31A7.623,7.623,0,0,1,39-7.1a7.382,7.382,0,0,1,.51-2.72,7.5,7.5,0,0,1,1.41-2.3,6.817,6.817,0,0,1,2.12-1.59,5.983,5.983,0,0,1,2.64-.59,5.857,5.857,0,0,1,2.71.63,6.806,6.806,0,0,1,2.1,1.65,7.627,7.627,0,0,1,1.35,2.31,7.487,7.487,0,0,1,.48,2.63,7.382,7.382,0,0,1-.51,2.72,7.473,7.473,0,0,1-1.4,2.29A6.772,6.772,0,0,1,48.3-.49,5.983,5.983,0,0,1,45.66.1ZM40.4-7.1a6.614,6.614,0,0,0,.38,2.23,6.068,6.068,0,0,0,1.08,1.9,5.309,5.309,0,0,0,1.66,1.32,4.638,4.638,0,0,0,2.14.49,4.578,4.578,0,0,0,2.18-.52A5.316,5.316,0,0,0,49.5-3.04a6.284,6.284,0,0,0,1.05-1.9,6.511,6.511,0,0,0,.37-2.16,6.461,6.461,0,0,0-.39-2.23,6.1,6.1,0,0,0-1.09-1.89,5.374,5.374,0,0,0-1.66-1.31,4.6,4.6,0,0,0-2.12-.49,4.65,4.65,0,0,0-2.18.51,5.2,5.2,0,0,0-1.66,1.35,6.284,6.284,0,0,0-1.05,1.9A6.511,6.511,0,0,0,40.4-7.1Zm23.96-5.86H59.3V0H57.9V-12.96H52.84V-14.2H64.36ZM66.5-14.2h1.38v5.42h3.36a5.826,5.826,0,0,1,1.89.29,4.073,4.073,0,0,1,1.46.85,3.84,3.84,0,0,1,.95,1.38,4.818,4.818,0,0,1,.34,1.86,4.643,4.643,0,0,1-.35,1.84,4.051,4.051,0,0,1-.96,1.39,4.113,4.113,0,0,1-1.46.87,5.585,5.585,0,0,1-1.87.3H66.5ZM67.88-1.22h3.36a3.955,3.955,0,0,0,1.45-.24,2.709,2.709,0,0,0,1.01-.67,2.694,2.694,0,0,0,.59-1.01,4.026,4.026,0,0,0,.19-1.26,4.026,4.026,0,0,0-.19-1.26,2.6,2.6,0,0,0-.59-1,2.771,2.771,0,0,0-1.01-.66,3.955,3.955,0,0,0-1.45-.24H67.88ZM77.84,0V-14.18h1.4V0Z" transform="translate(816 1790)"/></g></svg>