<svg xmlns="http://www.w3.org/2000/svg" xmlns:xlink="http://www.w3.org/1999/xlink" width="50.867" height="58.264" viewBox="0 0 50.867 58.264"><defs><style>.a{fill:url(#a);}</style><linearGradient id="a" x1="-4.186" y1="-5.398" x2="1.649" y2="5.572" gradientUnits="objectBoundingBox"><stop offset="0" stop-color="#c01c3f"/><stop offset="1" stop-color="#9e1436"/></linearGradient></defs><g transform="translate(-17.097)"><path class="a" d="M159.969,133.038a2.575,2.575,0,1,0,2.576,2.575A2.578,2.578,0,0,0,159.969,133.038Z" transform="translate(-109.948 -104.259)"/><path class="a" d="M90.707,85.946a2.575,2.575,0,1,0,2.576,2.576A2.578,2.578,0,0,0,90.707,85.946Z" transform="translate(-55.669 -67.354)"/><path class="a" d="M67.808,35.289a2.38,2.38,0,0,0-2.225-1.534H61.025V4.606A4.606,4.606,0,0,0,56.419,0H28.641a4.606,4.606,0,0,0-4.606,4.606V33.755H19.477A2.38,2.38,0,0,0,17.9,37.914L39.47,57.1a4.606,4.606,0,0,0,6.121,0L67.165,37.914A2.381,2.381,0,0,0,67.808,35.289ZM29.218,21.168a5.82,5.82,0,1,1,5.82,5.82A5.827,5.827,0,0,1,29.218,21.168Zm9.134,16.823a1.622,1.622,0,1,1-2.892-1.471L46.64,14.531A1.622,1.622,0,1,1,49.532,16Zm11.669-.816a5.82,5.82,0,1,1,5.82-5.82A5.827,5.827,0,0,1,50.022,37.175Z"/></g></svg>