<svg xmlns="http://www.w3.org/2000/svg" width="50" height="49.997" viewBox="0 0 50 49.997"><defs><style>.a{fill:#fff;}</style></defs><g transform="translate(0 0)"><path class="a" d="M2.113,15.67a2.5,2.5,0,0,0,2.435,1.845,2.562,2.562,0,0,0,.488-.047l5.05-.968,3.885-.852a2.46,2.46,0,0,0,2.008-2.7L15.5,9.307c-.059-.453.978-.954,1.946-1.1a53.892,53.892,0,0,1,16.937-.044c1.542.266,1.883.513,1.957.606a1.851,1.851,0,0,1,.064,1.2l-.34,2.417a2.953,2.953,0,0,0,.376,2.286,3.612,3.612,0,0,0,2.295,1.114c.583.112,1.032.224,1.482.333.477.118.952.237,1.572.355l4.517.872a3.528,3.528,0,0,0,2.381-.138,3.066,3.066,0,0,0,1.392-2.3l.028-.121c.087-.385.2-.767.319-1.148a8.929,8.929,0,0,0,.527-2.851A6.681,6.681,0,0,0,48.75,6.334C42.98.671,33,.016,26,.016c-15.98,0-22.068,4.6-24.362,8.459a4.6,4.6,0,0,0-.48,3.541ZM3.07,9.328C5.144,5.839,10.8,1.683,26,1.683c6.71,0,16.249.606,21.582,5.84a5.049,5.049,0,0,1,1.7,3.314,7.551,7.551,0,0,1-.457,2.323c-.126.417-.25.837-.348,1.26l-.029.127c-.139.62-.25,1.037-.536,1.187a2.309,2.309,0,0,1-1.293-.023l-4.514-.862c-.583-.112-1.034-.224-1.483-.333-.477-.118-.952-.237-1.571-.355-.4-.077-1.068-.2-1.281-.485a1.612,1.612,0,0,1-.053-1.047l.341-2.417a3.216,3.216,0,0,0-.35-2.392c-.538-.767-1.779-1.073-3.038-1.291a55.568,55.568,0,0,0-17.47.038c-1.823.277-3.566,1.3-3.349,2.964l.475,3.635a.8.8,0,0,1-.691.858l-3.886.844-5.03.963a.849.849,0,0,1-1-.583L2.772,11.6A2.952,2.952,0,0,1,3.07,9.328Z" transform="translate(-1 -0.016)"/><path class="a" d="M50.881,168.958c-.008-.022-.017-.042-.026-.062a2.545,2.545,0,0,0-.311-.583L39.952,153.939a3.347,3.347,0,0,0-2.684-1.356H35.1l-.737-5.894a1.667,1.667,0,0,0-1.667-1.606H30.2a1.667,1.667,0,0,0-1.667,1.667v6.666a.833.833,0,0,0,1.666,0v-6.666h2.5a.716.716,0,0,0,.007.1l.833,6.666a.833.833,0,0,0,.827.73h2.9a1.673,1.673,0,0,1,1.342.678l9.938,13.488H41.864a.833.833,0,1,0,0,1.666h7.5v6.666a2.5,2.5,0,0,1-2.5,2.5H5.2a2.5,2.5,0,0,1-2.5-2.5v-6.666h35a.833.833,0,1,0,0-1.666H3.516l9.938-13.488a1.672,1.672,0,0,1,1.342-.677h2.9a.833.833,0,0,0,.827-.73l.833-6.666a.717.717,0,0,0,.007-.1h2.5v6.666a.833.833,0,0,0,.833.833h3.333a.833.833,0,0,0,0-1.667h-2.5v-5.833a1.667,1.667,0,0,0-1.667-1.667h-2.5A1.667,1.667,0,0,0,17.7,146.69l-.736,5.894H14.8a3.347,3.347,0,0,0-2.681,1.356l-10.6,14.375a2.48,2.48,0,0,0-.311.583c-.009.018-.017.039-.026.06a2.507,2.507,0,0,0-.15.839v6.952A4.171,4.171,0,0,0,5.2,180.915H46.864a4.171,4.171,0,0,0,4.166-4.166V169.8A2.5,2.5,0,0,0,50.881,168.958Z" transform="translate(-1.031 -130.918)"/><path class="a" d="M166.831,258.943a9.573,9.573,0,0,1,2.436-.9,14.021,14.021,0,0,1,6.11,0,.833.833,0,1,0,.377-1.623,15.717,15.717,0,0,0-6.865,0,11.247,11.247,0,0,0-2.861,1.063,6.484,6.484,0,0,0-2.045,1.68,3.583,3.583,0,0,0,0,4.583,6.482,6.482,0,0,0,2.045,1.68,11.254,11.254,0,0,0,2.861,1.063,15.625,15.625,0,0,0,6.865,0,11.247,11.247,0,0,0,2.861-1.063,6.484,6.484,0,0,0,2.045-1.68,3.583,3.583,0,0,0,0-4.583.833.833,0,1,0-1.321,1.016,1.931,1.931,0,0,1,0,2.551,4.909,4.909,0,0,1-1.527,1.235,9.576,9.576,0,0,1-2.436.9,14.022,14.022,0,0,1-6.11,0,9.555,9.555,0,0,1-2.436-.9,4.906,4.906,0,0,1-1.527-1.235,1.931,1.931,0,0,1,0-2.551A4.911,4.911,0,0,1,166.831,258.943Z" transform="translate(-147.321 -231.039)"/></g></svg>