<svg xmlns="http://www.w3.org/2000/svg" width="33.895" height="44.068" viewBox="0 0 33.895 44.068"><defs><style>.a{fill:#c01c3f;}</style></defs><g transform="translate(-961.474 -2296.999)"><path class="a" d="M93.546,39.627c2.094,2.952,4.184,5.593,5.57,7.293.2.247.391.477.574.7H95.508a.847.847,0,1,0,0,1.695h13.558a.847.847,0,0,0,0-1.695h-4.181c.183-.221.372-.451.575-.7,1.385-1.695,3.474-4.341,5.569-7.293a74.453,74.453,0,0,0,5.6-9.022c1.73-3.4,2.608-6.219,2.608-8.385a16.936,16.936,0,0,0-4.963-12,.847.847,0,1,0-1.2,1.2,15.248,15.248,0,0,1,4.467,10.8c0,1.9-.815,4.459-2.424,7.615a72.77,72.77,0,0,1-5.471,8.813c-2.066,2.914-4.131,5.525-5.5,7.2-.455.558-.864,1.051-1.213,1.468a.858.858,0,0,1-1.291,0c-.349-.417-.758-.91-1.213-1.468-1.368-1.677-3.434-4.288-5.5-7.2a72.771,72.771,0,0,1-5.471-8.813c-1.61-3.157-2.423-5.719-2.423-7.615A15.257,15.257,0,0,1,108.228,8.144a.848.848,0,0,0,.662-1.561A16.954,16.954,0,0,0,85.34,22.22c0,2.166.878,4.987,2.608,8.389A74.4,74.4,0,0,0,93.546,39.627Z" transform="translate(876.135 2291.754)"/><path class="a" d="M179.134,83.78a.847.847,0,0,0,0-1.695,8.474,8.474,0,1,0,5.992,2.482.847.847,0,1,0-1.2,1.2,6.779,6.779,0,1,1-4.794-1.985Z" transform="translate(799.287 2222.545)"/></g></svg>