<svg xmlns="http://www.w3.org/2000/svg" width="13.563" height="13.563" viewBox="0 0 13.563 13.563"><defs><style>.a{fill:#fff;}</style></defs><path class="a" d="M6.781-12.031a6.573,6.573,0,0,1,3.391.916,6.852,6.852,0,0,1,2.475,2.475,6.573,6.573,0,0,1,.916,3.391,6.573,6.573,0,0,1-.916,3.391A6.852,6.852,0,0,1,10.172.615a6.573,6.573,0,0,1-3.391.916A6.573,6.573,0,0,1,3.391.615,6.852,6.852,0,0,1,.916-1.859,6.573,6.573,0,0,1,0-5.25,6.573,6.573,0,0,1,.916-8.641a6.852,6.852,0,0,1,2.475-2.475A6.573,6.573,0,0,1,6.781-12.031Zm3.336,4.648a.526.526,0,0,0-.1-.479.322.322,0,0,0-.369-.068L3.117-5.387q-.355.109-.369.273t.287.246l1.668.52L8.586-6.781A.278.278,0,0,1,8.8-6.836q.082.027,0,.109L5.66-3.883,5.523-2.16a.5.5,0,0,0,.355-.164l.82-.793,1.7,1.258q.492.273.6-.273Z" transform="translate(0 12.031)"/></svg>