<svg xmlns="http://www.w3.org/2000/svg" width="16" height="14" viewBox="0 0 16 14"><defs><style>.a{fill:#989898;}</style></defs><path class="a" d="M8-13a9.18,9.18,0,0,1,4.016.875,7.521,7.521,0,0,1,2.906,2.359A5.434,5.434,0,0,1,16-6.5a5.434,5.434,0,0,1-1.078,3.266A7.521,7.521,0,0,1,12.016-.875,9.18,9.18,0,0,1,8,0,9.5,9.5,0,0,1,4.656-.594,8.548,8.548,0,0,1,2.938.438,6.761,6.761,0,0,1,.25,1,.222.222,0,0,1,.031.844.272.272,0,0,1,.063.563,7.164,7.164,0,0,0,.781-.344a6.66,6.66,0,0,0,1-2.062A6.786,6.786,0,0,1,.469-4.312,5.225,5.225,0,0,1,0-6.5,5.434,5.434,0,0,1,1.078-9.766a7.521,7.521,0,0,1,2.906-2.359A9.18,9.18,0,0,1,8-13Z" transform="translate(0 13)"/></svg>