<svg xmlns="http://www.w3.org/2000/svg" width="50" height="38.333" viewBox="0 0 50 38.333"><defs><style>.a{fill:#fff;}</style></defs><g transform="translate(0 -119.467)"><g transform="translate(0 119.467)"><g transform="translate(0 0)"><path class="a" d="M47.5,119.467H20.521a.833.833,0,0,0,0,1.667H47.5a.833.833,0,0,1,.833.833V155.3a.833.833,0,0,1-.833.833H2.5a.833.833,0,0,1-.833-.833V121.967a.833.833,0,0,1,.833-.833H21.667a.833.833,0,1,0,0-1.667H2.5a2.5,2.5,0,0,0-2.5,2.5V155.3a2.5,2.5,0,0,0,2.5,2.5h45a2.5,2.5,0,0,0,2.5-2.5V121.967A2.5,2.5,0,0,0,47.5,119.467Z" transform="translate(0 -119.467)"/><path class="a" d="M76.1,153.789l-19.224,16.15a1.667,1.667,0,0,1-2.145,0L35.5,153.789a.833.833,0,1,0-1.072,1.277l19.225,16.149a3.329,3.329,0,0,0,4.288,0L77.17,155.066a.834.834,0,0,0-1.073-1.277Z" transform="translate(-30.8 -150.261)"/><path class="a" d="M46.707,332.678a.833.833,0,0,0-.8.259l-11.667,12.5a.833.833,0,1,0,1.218,1.137l11.667-12.5a.833.833,0,0,0-.415-1.4Z" transform="translate(-30.68 -311.839)"/><path class="a" d="M341.6,333.027a.833.833,0,0,0-.041,1.178l11.667,12.5a.833.833,0,1,0,1.218-1.137l-11.667-12.5A.833.833,0,0,0,341.6,333.027Z" transform="translate(-308.003 -311.97)"/></g></g></g></svg>