<svg xmlns="http://www.w3.org/2000/svg" width="12.25" height="12.25" viewBox="0 0 12.25 12.25"><defs><style>.a{fill:#fff;}</style></defs><path class="a" d="M12.25-10.691a.643.643,0,0,0-.205-.492.679.679,0,0,0-.479-.191H.684a.666.666,0,0,0-.492.191A.666.666,0,0,0,0-10.691V.191A.679.679,0,0,0,.191.67.643.643,0,0,0,.684.875H6.535V-3.883H4.949V-5.715H6.535V-7.082a2.383,2.383,0,0,1,.656-1.8,2.386,2.386,0,0,1,1.723-.629q.848,0,1.422.055v1.668H9.352a.948.948,0,0,0-.738.246,1.016,1.016,0,0,0-.164.656v1.176h1.832l-.246,1.832H8.449V.875h3.117A.643.643,0,0,0,12.059.67.679.679,0,0,0,12.25.191Z" transform="translate(0 11.375)"/></svg>