<svg xmlns="http://www.w3.org/2000/svg" width="12.25" height="12.25" viewBox="0 0 12.25 12.25"><defs><style>.a{fill:#fff;}</style></defs><path class="a" d="M6.125-8.395A3.06,3.06,0,0,1,7.7-7.971,3.154,3.154,0,0,1,8.846-6.822,3.06,3.06,0,0,1,9.27-5.25a3.06,3.06,0,0,1-.424,1.572A3.154,3.154,0,0,1,7.7-2.529a3.06,3.06,0,0,1-1.572.424,3.06,3.06,0,0,1-1.572-.424A3.154,3.154,0,0,1,3.4-3.678,3.06,3.06,0,0,1,2.98-5.25,3.06,3.06,0,0,1,3.4-6.822,3.154,3.154,0,0,1,4.553-7.971,3.06,3.06,0,0,1,6.125-8.395Zm0,5.2a1.975,1.975,0,0,0,1.449-.6,1.975,1.975,0,0,0,.6-1.449,1.975,1.975,0,0,0-.6-1.449,1.975,1.975,0,0,0-1.449-.6,1.975,1.975,0,0,0-1.449.6,1.975,1.975,0,0,0-.6,1.449,1.975,1.975,0,0,0,.6,1.449A1.975,1.975,0,0,0,6.125-3.2Zm4.02-5.332a.71.71,0,0,0-.219-.52.71.71,0,0,0-.52-.219.71.71,0,0,0-.52.219.71.71,0,0,0-.219.52.71.71,0,0,0,.219.52.71.71,0,0,0,.52.219.666.666,0,0,0,.506-.219A.852.852,0,0,0,10.145-8.531Zm2.078.738q.027.766.027,2.543t-.041,2.557a5.157,5.157,0,0,1-.232,1.354A3.187,3.187,0,0,1,11.225-.15,3.187,3.187,0,0,1,10.035.6,5.157,5.157,0,0,1,8.682.834Q7.9.875,6.125.875T3.568.834A4.465,4.465,0,0,1,2.215.574,2.915,2.915,0,0,1,1.025-.15,3.187,3.187,0,0,1,.273-1.34,5.157,5.157,0,0,1,.041-2.693Q0-3.473,0-5.25T.041-7.807A5.157,5.157,0,0,1,.273-9.16a3.187,3.187,0,0,1,.752-1.189A3.187,3.187,0,0,1,2.215-11.1a5.157,5.157,0,0,1,1.354-.232q.779-.041,2.557-.041t2.557.041a5.157,5.157,0,0,1,1.354.232,3.187,3.187,0,0,1,1.189.752,3.187,3.187,0,0,1,.752,1.189A5.563,5.563,0,0,1,12.223-7.793ZM10.91-1.641a5.757,5.757,0,0,0,.219-1.477q.027-.6.027-1.7v-.875q0-1.121-.027-1.7a5.487,5.487,0,0,0-.219-1.477,1.973,1.973,0,0,0-1.176-1.176,5.487,5.487,0,0,0-1.477-.219q-.6-.027-1.7-.027H5.688q-1.094,0-1.7.027a5.757,5.757,0,0,0-1.477.219A1.973,1.973,0,0,0,1.34-8.859a5.487,5.487,0,0,0-.219,1.477q-.027.6-.027,1.7v.875q0,1.094.027,1.7A5.757,5.757,0,0,0,1.34-1.641,2.073,2.073,0,0,0,2.516-.465a5.757,5.757,0,0,0,1.477.219q.6.027,1.7.027h.875q1.121,0,1.7-.027A5.487,5.487,0,0,0,9.734-.465,2.073,2.073,0,0,0,10.91-1.641Z" transform="translate(0 11.375)"/></svg>