<svg xmlns="http://www.w3.org/2000/svg" width="50.843" height="50" viewBox="0 0 50.843 50"><defs><style>.a{fill:#fff;}</style></defs><g transform="translate(0 -5.246)"><g transform="translate(0 5.246)"><g transform="translate(0 0)"><path class="a" d="M93.546,39.627c2.094,2.952,4.184,5.593,5.57,7.293.2.247.391.477.574.7H95.508a.847.847,0,1,0,0,1.695h13.558a.847.847,0,0,0,0-1.695h-4.181c.183-.221.372-.451.575-.7,1.385-1.695,3.474-4.341,5.569-7.293a74.453,74.453,0,0,0,5.6-9.022c1.73-3.4,2.608-6.219,2.608-8.385a16.936,16.936,0,0,0-4.963-12,.847.847,0,1,0-1.2,1.2,15.248,15.248,0,0,1,4.467,10.8c0,1.9-.815,4.459-2.424,7.615a72.77,72.77,0,0,1-5.471,8.813c-2.066,2.914-4.131,5.525-5.5,7.2-.455.558-.864,1.051-1.213,1.468a.858.858,0,0,1-1.291,0c-.349-.417-.758-.91-1.213-1.468-1.368-1.677-3.434-4.288-5.5-7.2a72.771,72.771,0,0,1-5.471-8.813c-1.61-3.157-2.423-5.719-2.423-7.615A15.257,15.257,0,0,1,108.228,8.144a.848.848,0,0,0,.662-1.561A16.954,16.954,0,0,0,85.34,22.22c0,2.166.878,4.987,2.608,8.389A74.4,74.4,0,0,0,93.546,39.627Z" transform="translate(-76.865 -5.246)"/><path class="a" d="M179.134,83.78a.847.847,0,0,0,0-1.695,8.474,8.474,0,1,0,5.992,2.482.847.847,0,1,0-1.2,1.2,6.779,6.779,0,1,1-4.794-1.985Z" transform="translate(-153.713 -74.455)"/><path class="a" d="M50.524,374.336l-5.211-9.321a2.634,2.634,0,0,0-2.306-1.331H36.968a.847.847,0,0,0,0,1.695h6.039a.94.94,0,0,1,.828.463l5.21,9.321a.763.763,0,0,1-.008.783.932.932,0,0,1-.82.449H2.628a.932.932,0,0,1-.819-.449.763.763,0,0,1-.008-.783l5.21-9.321a.939.939,0,0,1,.827-.463h6.039a.847.847,0,1,0,0-1.695H7.837a2.635,2.635,0,0,0-2.307,1.331L.319,374.336A2.458,2.458,0,0,0,.346,376.8a2.61,2.61,0,0,0,2.282,1.286H48.217A2.61,2.61,0,0,0,50.5,376.8,2.457,2.457,0,0,0,50.524,374.336Z" transform="translate(0 -328.089)"/><path class="a" d="M356.648,406.351h-3.389a.852.852,0,0,0-.47.142l-2.542,1.695a.848.848,0,0,0,.941,1.41l2.326-1.552h3.135a.847.847,0,0,0,0-1.695Z" transform="translate(-315.126 -366.52)"/><path class="a" d="M366.937,458.4a.847.847,0,0,0,.847.847h6.779a.847.847,0,1,0,0-1.695h-6.779A.847.847,0,0,0,366.937,458.4Z" transform="translate(-330.499 -412.636)"/><path class="a" d="M92.116,409.74a.847.847,0,0,0,.471-1.552l-2.542-1.695a.853.853,0,0,0-.471-.142h-3.39a.847.847,0,1,0,0,1.695H89.32l2.329,1.552A.846.846,0,0,0,92.116,409.74Z" transform="translate(-76.863 -366.519)"/><path class="a" d="M60.584,457.551a.847.847,0,1,0,0,1.695h6.779a.847.847,0,1,0,0-1.695Z" transform="translate(-53.805 -412.636)"/></g></g></g></svg>