<svg xmlns="http://www.w3.org/2000/svg" width="96.697" height="48.5" viewBox="0 0 96.697 48.5"><defs><style>.a{fill:#c01c3f;}.b{fill:#202020;}</style></defs><g transform="translate(-220.094 -5960.443)"><g transform="translate(220.094 5960.443)"><path class="a" d="M1.48,6.581V-14.154H9.015a11.257,11.257,0,0,1,4.454.818,9.143,9.143,0,0,1,3.2,2.22,9.19,9.19,0,0,1,1.928,3.286,12.355,12.355,0,0,1,.643,4.016A12.137,12.137,0,0,1,18.521.463a9.132,9.132,0,0,1-2.059,3.271,9.271,9.271,0,0,1-3.227,2.1,11.393,11.393,0,0,1-4.22.745Zm13.7-10.4a8.824,8.824,0,0,0-.409-2.745,6.14,6.14,0,0,0-1.2-2.161,5.329,5.329,0,0,0-1.942-1.4,6.553,6.553,0,0,0-2.614-.5H5.51V3.048h3.5a6.31,6.31,0,0,0,2.643-.526,5.41,5.41,0,0,0,1.928-1.446A6.43,6.43,0,0,0,14.768-1.1,8.725,8.725,0,0,0,15.177-3.816ZM36.788,3.048V6.581h-14.4V-14.154H36.526v3.534h-10.1v4.994h8.732v3.271H26.421v5.4Zm1.46-6.98a10.739,10.739,0,0,1,.686-3.753,10.2,10.2,0,0,1,2-3.315,10.13,10.13,0,0,1,3.213-2.366,9.922,9.922,0,0,1,4.322-.905,9.424,9.424,0,0,1,4.95,1.256,8.02,8.02,0,0,1,3.11,3.271l-3.1,2.132a5.294,5.294,0,0,0-.993-1.475,4.967,4.967,0,0,0-1.256-.949,5.637,5.637,0,0,0-1.4-.511,6.649,6.649,0,0,0-1.431-.161,5.437,5.437,0,0,0-2.643.613A5.815,5.815,0,0,0,43.841-8.5a7.019,7.019,0,0,0-1.124,2.22,8.4,8.4,0,0,0-.38,2.468,8.051,8.051,0,0,0,.438,2.643,7.034,7.034,0,0,0,1.241,2.234,6.208,6.208,0,0,0,1.928,1.548,5.272,5.272,0,0,0,2.468.584,6.491,6.491,0,0,0,1.46-.175,5.552,5.552,0,0,0,1.446-.555,5.478,5.478,0,0,0,1.27-.978A4.515,4.515,0,0,0,53.523.039l3.3,1.9A6.233,6.233,0,0,1,55.406,4a9.114,9.114,0,0,1-2.074,1.5,10.591,10.591,0,0,1-2.468.935,10.8,10.8,0,0,1-2.57.321,8.833,8.833,0,0,1-4.059-.935,10.571,10.571,0,0,1-3.169-2.439A11.316,11.316,0,0,1,38.993-.034,10.664,10.664,0,0,1,38.249-3.932ZM68.184,6.727a9.421,9.421,0,0,1-4.132-.891,10.149,10.149,0,0,1-3.183-2.366A10.764,10.764,0,0,1,58.809.1a10.736,10.736,0,0,1-.73-3.884,10.421,10.421,0,0,1,.774-3.972,10.961,10.961,0,0,1,2.132-3.359,10.171,10.171,0,0,1,3.227-2.322,9.579,9.579,0,0,1,4.059-.862,9.1,9.1,0,0,1,4.1.92,10.249,10.249,0,0,1,3.169,2.409,11.093,11.093,0,0,1,2.044,3.388,10.66,10.66,0,0,1,.73,3.855A10.485,10.485,0,0,1,77.558.229a10.744,10.744,0,0,1-2.1,3.329,10.11,10.11,0,0,1-3.213,2.307A9.579,9.579,0,0,1,68.184,6.727ZM62.167-3.786a8.343,8.343,0,0,0,.409,2.6,6.938,6.938,0,0,0,1.183,2.22,5.881,5.881,0,0,0,1.9,1.548,5.462,5.462,0,0,0,2.555.584,5.416,5.416,0,0,0,2.585-.6A5.885,5.885,0,0,0,72.7.974,7.1,7.1,0,0,0,73.864-1.26a8.3,8.3,0,0,0,.394-2.526,8.08,8.08,0,0,0-.423-2.6,7.166,7.166,0,0,0-1.2-2.22,5.716,5.716,0,0,0-1.9-1.533,5.511,5.511,0,0,0-2.526-.569,5.5,5.5,0,0,0-2.6.6,5.762,5.762,0,0,0-1.9,1.577,7.083,7.083,0,0,0-1.154,2.22A8.3,8.3,0,0,0,62.167-3.786ZM81.413,6.581V-14.154h9.17a5.885,5.885,0,0,1,2.643.6,6.837,6.837,0,0,1,2.088,1.577,7.442,7.442,0,0,1,1.373,2.22,6.676,6.676,0,0,1,.5,2.5A6.9,6.9,0,0,1,96.176-3.6a5.783,5.783,0,0,1-2.731,2.38l4.731,7.8H93.65L89.415-.369H85.444V6.581ZM85.444-3.9H90.5a2.131,2.131,0,0,0,1.037-.263,2.652,2.652,0,0,0,.832-.716,3.567,3.567,0,0,0,.555-1.066,4.13,4.13,0,0,0,.2-1.314,3.744,3.744,0,0,0-.234-1.343,3.506,3.506,0,0,0-.628-1.066,2.84,2.84,0,0,0-.905-.7,2.351,2.351,0,0,0-1.037-.248H85.444Z" transform="translate(-1.48 14.3)"/><path class="b" d="M14.821-13.035H8.237V3.782H6.945V-13.035H.36V-14.2H14.821ZM29.587,2.617V3.782H17.607V-14.2H29.359v1.165H18.9v7.066h9.143v1.114H18.9V2.617ZM32.423-14.2,38.73-6.02l6.281-8.18H46.48L39.414-5.082l6.863,8.864H44.808L38.73-4.145l-6.1,7.927H31.132L38-5.082,30.929-14.2Zm29.151,1.165H54.989V3.782H53.7V-13.035H47.113V-14.2H61.574ZM64.36,3.782V-14.2h1.292V3.782Zm6,0V-14.2h1.292V2.617H82.393V3.782ZM97.057,2.617V3.782H85.077V-14.2H96.829v1.165H86.369v7.066h9.143v1.114H86.369V2.617Z" transform="translate(-0.36 44.718)"/></g></g></svg>