<svg xmlns="http://www.w3.org/2000/svg" xmlns:xlink="http://www.w3.org/1999/xlink" width="200" height="200" viewBox="0 0 200 200"><defs><style>.a{fill:#fff;}.a,.c{stroke:#e1000b;stroke-width:2px;}.b{opacity:0.05;clip-path:url(#a);}.c,.e{fill:none;}.d{stroke:none;}</style><clipPath id="a"><rect class="a" width="200" height="200" transform="translate(-4643 2468)"/></clipPath></defs><g class="b" transform="translate(4643 -2468)"><g transform="translate(256.916 227)"><g class="c" transform="translate(-4825.749 2315.251)"><circle class="d" cx="25.834" cy="25.834" r="25.834"/><circle class="e" cx="25.834" cy="25.834" r="24.834"/></g><g class="c" transform="translate(-4838.666 2302.334)"><circle class="d" cx="38.75" cy="38.75" r="38.75"/><circle class="e" cx="38.75" cy="38.75" r="37.75"/></g><g class="c" transform="translate(-4851.583 2289.417)"><circle class="d" cx="51.667" cy="51.667" r="51.667"/><circle class="e" cx="51.667" cy="51.667" r="50.667"/></g><g class="c" transform="translate(-4809.104 2331.895)"><circle class="d" cx="9.189" cy="9.189" r="9.189"/><circle class="e" cx="9.189" cy="9.189" r="8.189"/></g><g class="c" transform="translate(-4803.104 2337.895)"><circle class="d" cx="3.189" cy="3.189" r="3.189"/><circle class="e" cx="3.189" cy="3.189" r="2.189"/></g><g class="c" transform="translate(-4864.5 2276.5)"><circle class="d" cx="64.584" cy="64.584" r="64.584"/><circle class="e" cx="64.584" cy="64.584" r="63.584"/></g><g class="c" transform="translate(-4816.902 2324.098)"><circle class="d" cx="16.986" cy="16.986" r="16.986"/><circle class="e" cx="16.986" cy="16.986" r="15.986"/></g><g class="c" transform="translate(-4877.416 2263.584)"><circle class="d" cx="77.501" cy="77.501" r="77.501"/><circle class="e" cx="77.501" cy="77.501" r="76.501"/></g><g class="c" transform="translate(-4890.333 2250.667)"><circle class="d" cx="90.417" cy="90.417" r="90.417"/><circle class="e" cx="90.417" cy="90.417" r="89.417"/></g><g class="c" transform="translate(-4903.25 2237.75)"><circle class="d" cx="103.334" cy="103.334" r="103.334"/><circle class="e" cx="103.334" cy="103.334" r="102.334"/></g><g class="c" transform="translate(-4916.167 2224.833)"><circle class="d" cx="116.251" cy="116.251" r="116.251"/><circle class="e" cx="116.251" cy="116.251" r="115.251"/></g><g class="c" transform="translate(-4929.083 2211.917)"><circle class="d" cx="129.168" cy="129.168" r="129.168"/><circle class="e" cx="129.168" cy="129.168" r="128.168"/></g><g class="c" transform="translate(-4942 2199)"><circle class="d" cx="142.084" cy="142.084" r="142.084"/><circle class="e" cx="142.084" cy="142.084" r="141.084"/></g></g></g></svg>