<svg xmlns="http://www.w3.org/2000/svg" width="15" height="15" viewBox="0 0 15 15"><defs><style>.a{fill:#fff;}</style></defs><path class="a" d="M.566-11.518a.556.556,0,0,0-.41.235.743.743,0,0,0-.147.44,13.379,13.379,0,0,0,1.847,6.86,13.668,13.668,0,0,0,4.9,4.9,13.379,13.379,0,0,0,6.86,1.847.743.743,0,0,0,.44-.147.556.556,0,0,0,.235-.41l.7-3.049a.662.662,0,0,0-.059-.469.631.631,0,0,0-.352-.322L11.3-3.045a.744.744,0,0,0-.44-.044.589.589,0,0,0-.381.249L9.038-1.081a10.3,10.3,0,0,1-3.064-2.14A10.77,10.77,0,0,1,3.85-6.27L5.608-7.736A.7.7,0,0,0,5.843-8.1a.731.731,0,0,0-.029-.454L4.407-11.84a.647.647,0,0,0-.322-.322.662.662,0,0,0-.469-.059Z" transform="translate(-0.009 12.24)"/></svg>