<svg xmlns="http://www.w3.org/2000/svg" width="14" height="16" viewBox="0 0 14 16"><defs><style>.a{fill:#989898;}</style></defs><path class="a" d="M7-6a3.966,3.966,0,0,1-2.016-.531A3.891,3.891,0,0,1,3.531-7.984,3.966,3.966,0,0,1,3-10a3.966,3.966,0,0,1,.531-2.016,3.891,3.891,0,0,1,1.453-1.453A3.966,3.966,0,0,1,7-14a3.966,3.966,0,0,1,2.016.531,3.891,3.891,0,0,1,1.453,1.453A3.966,3.966,0,0,1,11-10a3.966,3.966,0,0,1-.531,2.016A3.891,3.891,0,0,1,9.016-6.531,3.966,3.966,0,0,1,7-6ZM9.813-5a4.1,4.1,0,0,1,2.094.563,4.153,4.153,0,0,1,1.531,1.531A4.1,4.1,0,0,1,14-.812V.5a1.447,1.447,0,0,1-.437,1.063A1.447,1.447,0,0,1,12.5,2H1.5A1.447,1.447,0,0,1,.438,1.563,1.447,1.447,0,0,1,0,.5V-.812A4.1,4.1,0,0,1,.563-2.906,4.153,4.153,0,0,1,2.094-4.437,4.1,4.1,0,0,1,4.188-5h.531A5.427,5.427,0,0,0,7-4.5,5.427,5.427,0,0,0,9.281-5Z" transform="translate(0 14)"/></svg>